<svg xmlns="http://www.w3.org/2000/svg" viewBox="0 0 256 256" width="256" height="256">
  <defs>
    <radialGradient id="bg" cx="50%" cy="40%" r="65%">
      <stop offset="0%"   stop-color="#0f1a2e"/>
      <stop offset="100%" stop-color="#080c14"/>
    </radialGradient>
    <radialGradient id="planet" cx="38%" cy="32%" r="68%">
      <stop offset="0%"   stop-color="#60a5fa"/>
      <stop offset="55%"  stop-color="#2563eb"/>
      <stop offset="100%" stop-color="#1e40af"/>
    </radialGradient>
    <filter id="glow">
      <feGaussianBlur stdDeviation="4" result="blur"/>
      <feMerge><feMergeNode in="blur"/><feMergeNode in="SourceGraphic"/></feMerge>
    </filter>
    <filter id="softglow">
      <feGaussianBlur stdDeviation="2" result="blur"/>
      <feMerge><feMergeNode in="blur"/><feMergeNode in="SourceGraphic"/></feMerge>
    </filter>
  </defs>

  <!-- Background -->
  <rect width="256" height="256" rx="52" fill="url(#bg)"/>

  <!-- Stars (blue-white tones only) -->
  <circle cx="36"  cy="42"  r="1.5" fill="#93c5fd" opacity="0.9"/>
  <circle cx="210" cy="68"  r="1"   fill="#bfdbfe" opacity="0.8"/>
  <circle cx="190" cy="32"  r="1.5" fill="#60a5fa" opacity="0.7"/>
  <circle cx="48"  cy="190" r="1"   fill="#bfdbfe" opacity="0.6"/>
  <circle cx="220" cy="195" r="1.5" fill="#93c5fd" opacity="0.8"/>
  <circle cx="72"  cy="218" r="1"   fill="#bfdbfe" opacity="0.5"/>
  <circle cx="160" cy="215" r="1"   fill="#60a5fa" opacity="0.6"/>
  <circle cx="30"  cy="148" r="1"   fill="#93c5fd" opacity="0.5"/>
  <circle cx="228" cy="130" r="1.5" fill="#bfdbfe" opacity="0.4"/>

  <!-- Outer orbit ring (behind planet) -->
  <ellipse cx="128" cy="128" rx="94" ry="30"
           fill="none" stroke="#1d4ed8" stroke-width="2.5" opacity="0.4"
           transform="rotate(-22 128 128)"/>

  <!-- Planet -->
  <circle cx="128" cy="128" r="52" fill="url(#planet)" filter="url(#glow)"/>

  <!-- Planet specular highlight -->
  <ellipse cx="108" cy="106" rx="20" ry="13"
           fill="white" opacity="0.14" transform="rotate(-18 108 106)"/>

  <!-- Equator band on planet -->
  <ellipse cx="128" cy="128" rx="52" ry="15"
           fill="none" stroke="rgba(147,197,253,0.2)" stroke-width="1.5"/>

  <!-- Inner orbit detail -->
  <ellipse cx="128" cy="128" rx="70" ry="20"
           fill="none" stroke="#3b82f6" stroke-width="1.5" opacity="0.3"
           transform="rotate(-22 128 128)"/>

  <!-- Outer orbit ring (in front of planet) -->
  <ellipse cx="128" cy="128" rx="94" ry="30"
           fill="none" stroke="#3b82f6" stroke-width="2.5" opacity="0.7"
           stroke-dasharray="148 432"
           transform="rotate(-22 128 128)"/>

  <!-- Orbiting satellite / moon -->
  <circle cx="208" cy="112" r="7" fill="#93c5fd" opacity="0.95" filter="url(#softglow)"/>
  <!-- Satellite shine -->
  <circle cx="206" cy="110" r="2" fill="white" opacity="0.5"/>
</svg>